<?xml version="1.0" encoding="UTF-8"?>
<svg xmlns="http://www.w3.org/2000/svg" width="1907" height="672" viewBox="0 0 1907 672" role="img" aria-labelledby="title desc">
  <title id="title">DON B Diagnostic Garage logo</title>
  <desc id="desc">Vectorized logo from the provided raster image.</desc>
  
  <g fill-rule="evenodd" clip-rule="evenodd" shape-rendering="geometricPrecision">
    <path d="M1587 641.2L1581.5 640L1577.3 631L1569 581.1L1561.1 606L1557 611L1552 611.5L1546.8 607L1539 579.8L1534.8 576L1535.5 573L1539 572.9L1543.3 576L1551 600.8L1553 603.7L1555.5 600L1559.2 583L1563 572.3L1567 568.3L1573.4 569L1578 577.6L1582.1 605L1585 616.1L1586.4 612L1592.1 558L1594.5 552L1598 548.6L1605 547.9L1610.1 552L1614 563L1619 586.5L1626 577.2L1632 574.6L1682 574.3L1710 570.6L1730 565L1744 559.4L1759.7 551L1771.5 543L1792 523L1805.4 502L1811 486.8L1853 325.3L1854.9 316L1855.5 300L1854.4 289L1850.4 274L1839.1 252L1829.7 241L1818.8 231L1799 218.8L1769 208.7L1750 205.7L1735 204.9L174 205.7L152 211.6L140 217.4L130.1 224L115.8 238L106.6 252L103.6 259L45.1 483L43.7 501L46.1 517L50.8 530L56.5 540L71 556L85 565.4L107 573.2L122 574.6L179 574.7L185 577.4L192 586L198 557.9L200.6 552L207 547.6L213 548.6L216.4 552L218.5 558L223.6 606L226 615.9L232.6 578L237 569.4L240 567.8L243 568L247.5 572L250 577.6L255.6 601L258 604L267.6 576L271 573.2L275 572.8L275.8 576L271.7 580L264 607L261 610.4L258 611.7L255 611.5L252 609.4L248 601.1L243 582.5L241.3 582L233.4 631L230.2 639L224 641.2L221 640L217.4 634L208 584.5L205.1 605L203 610.9L199 615.8L193 617.8L188 616.4L184 613.2L174 592.4L113 591.4L93 587.5L79.4 582L65 573.4L55 565L45.3 554L36.9 541L28.4 518L26.4 502L27 486L66.3 332L76 285.7L86.2 247L92 218L94 188.7L101 179.5L181 183.8L200 183.1L230.2 179L310 159.3L440 118.5L551 86.9L636.4 66L738 46.5L819 35.8L885 30.8L961 29.5L1016 32.4L1061 40.6L1098.1 52L1139 66.7L1194 88.8L1230 105L1315 148.5L1351 162.6L1370.3 168L1396 172.4L1411 173.3L1618 167.6L1686 168.4L1739 171.8L1777 176.9L1809 185.2L1831 196.1L1846.5 209L1861 227.5L1871 249L1875.5 270L1875.3 300L1869.5 331L1828 490.2L1822.5 506L1817 517.3L1800 540.3L1783 555.8L1769.9 565L1755 573.2L1727 584.2L1705 589.3L1688 591.3L1637 592.2L1627.6 612L1623 616.3L1618 617.8L1612 616L1607.7 611L1602 584.5L1594.3 631L1591.2 638ZM1279.3 186L1272 180.2L1242.5 163L1184.8 133L1136 110.5L1083 88.6L1055 79.7L1020 71.5L983 65.8L950 63.2L886 62.5L829 65.9L774 72.7L718 82.4L651 97.7L574 119.9L538 135.5L529 142.6L526.9 148L528.4 153L532.8 157L552 164.3L588 169.9L640 173.9L774 179.1L875 181.4L1219 183.8Z" fill="#BF3533"/>
    <path d="M395 509.1L123 509.7L116 508.2L112 505.5L109 500.8L109 494.5L163.4 285L165 281L168.1 277L177 271.4L185 269.7L450 269.8L461 270.7L475.4 274L488 279.8L496 286.2L500 291.4L502.6 297L503.5 303L503.1 309L460 473.2L456 480.2L450 487L436 497L416 505.2ZM1683 509.1L1411 509.7L1404 508.5L1399 505.4L1396.3 501L1396.6 493L1450.8 284L1455.2 277L1464 271.5L1472 269.7L1738 269.8L1752 271.4L1762.5 274L1773 278.6L1782 285.1L1789 295L1790.5 300L1790.7 306L1776.4 361L1771 370.7L1763 379.2L1752.3 386L1741.4 390L1750 393.4L1755.5 398L1760 405.4L1761.5 412L1760 425L1747.1 473L1739 485L1732 491.1L1722.9 497L1707 504L1697 506.8ZM776 509.1L547 509.5L535 508.2L520 504L511.8 500L504 494.1L499.8 489L496.7 483L495.6 476L496.5 469L538.6 308L541 302.5L546.5 295L560.3 284L574.8 277L595 271.5L611 269.8L834 269.9L847 271.6L858 274.7L868 279.4L875.5 285L880.5 291L883.3 297L884.3 303L883.7 309L840.3 474L837.6 479L832 485.7L825 491.8L816.9 497L808 501.3L796 505.4ZM1221 509.2L1124 509.6L1115 508.4L1109 505.4L1105 501.3L1101 494.5L1047 388.3L1018.4 495L1015.4 501L1011 505.1L1005 508.3L996 509.7L885 509.7L880 509L875 506.9L870.5 501L870.5 494L923 293L925.7 283L928.8 278L936 272.4L946 269.7L1040 269.7L1047 270.4L1053.8 273L1058.4 277L1061.1 281L1115 394.1L1117 389.3L1144 285.4L1146.4 280L1152.5 274L1160 270.7L1167 269.7L1279 269.7L1285 270.8L1289 272.9L1292.3 277L1293 284L1237.9 495L1236.3 499L1231.9 504L1227.5 507ZM285.6 474L298.7 471L310.8 465L321 455.1L325.1 446L354.8 330L354.4 322L350 314.3L343 308.8L335.8 306L327 304.6L303 304.5L301 304.9L300.5 306L256.5 473L259 474.4ZM672.7 474L683.4 471L694.7 464L701.6 456L705.7 447L736.2 328L735.2 319L732 313.1L727.6 309L721 305.8L714 304.5L707 304.9L698 307.4L690 311.7L684 316.7L678.6 323L675.7 328L673 336.1L646.6 438L643.6 453L645.5 462L651 469.1L660 473.5ZM1613.6 374L1627 370.4L1631.4 368L1635 364.2L1647.3 317L1647.1 313L1644.9 310L1641 307.6L1631 304.9L1589 304.7L1570.5 373L1572 374.6ZM1586.3 474L1600 470.7L1605 468L1608.1 465L1621 418.1L1621.2 414L1616.6 409L1607 405.8L1598 405L1563 405.2L1560.8 410L1544.2 473L1546 474.4ZM717 611L686 610.3L679 608L675.6 604L674.5 600L674.7 594L680 569.7L684 562L690 557.3L695 555.7L704 554.8L732 554.8L742 556.4L747.6 561L749.1 566L748.5 574L746 587.3L741.5 601L738 605.4L733 608.6L727 610.3ZM372 610L321.7 610L333 555.7L383 555.7L389 557.5L393.3 561L395.4 566L395.9 573L393.3 588L390.5 596L387.7 601L383 605.8L379 608.2ZM1245 610L1236.7 610L1239.1 593L1237 590.2L1232 589.4L1197 589.9L1192 610L1183.6 610L1183.1 609L1194.7 556L1196 555.3L1243 555.4L1247.4 556L1252.6 559L1254.9 564L1254.3 574L1252 581L1247.6 586L1249 593ZM1378 611L1348 610.3L1342 608.3L1339.4 606L1337.1 601L1337 595L1339.9 579L1344 566L1350 558.7L1358 555.6L1371 554.6L1394 554.7L1404 556.7L1407.3 559L1409.8 564L1409.8 571L1408 573.8L1401 573.6L1400.5 566L1396 563.7L1362 563.8L1355 566L1352.9 569L1350.7 575L1346.8 595L1347.2 599L1350 601.4L1373 602.4L1390 601.2L1394.7 597L1396.4 592L1396 590.3L1370.6 590L1369.6 588L1371 582.5L1372 581.7L1407.2 582L1407.1 587L1404.4 597L1400 604.9L1393 609.5ZM547 611L518 610.5L511 608.5L508 605.9L505.9 601L506 594L509 577.8L512 567.7L517.2 560L521 557.4L526 555.7L556 554.6L572 556.3L576 559L578 562.1L578.7 569L578 573L577 573.6L569 573.1L569.2 566L565 563.7L531 563.8L525 565.3L521.6 569L519 577L515.7 594L515.9 599L519 601.4L540 602.4L558 601.4L562.8 598L565.3 592L565 590.5L539 590L538.4 588L540 582L576 582L576.6 583L573.8 595L571 601.9L568 605.7L561 609.8ZM1072 611L1043 610.5L1037 609.1L1032.6 606L1030.4 601L1030.3 595L1033 580L1037 566.5L1042.9 559L1051 555.6L1083 554.7L1097 556.6L1100.4 559L1102.9 564L1102.9 571L1102.3 573L1101 573.7L1094 573.6L1093.5 566L1089 563.7L1055 563.9L1051 564.6L1046.6 568L1044 575L1040 596L1041 599.9L1043 601.3L1065 602.4L1083 601.2L1087.7 597L1089.4 592L1089 590.3L1064 590.1L1062.9 588L1064.7 582L1100.3 582L1100.2 587L1097.5 597L1093 605L1086 609.6ZM722.6 602L730 600.4L733.6 596L739 573L738.6 566L732 563.8L718 563.3L699 563.9L692.6 566L689.8 570L687 580L684.4 595L685.3 600L688 601.5L696 602.3ZM794 611.1L769 610.2L763 608.6L759 605L757.6 598L758.9 592L760 591.1L766 591L768 591.9L767.3 598L769 600.7L779 602.2L804 601.3L808.6 599L811.3 594L811.5 590L808 587.6L776 586.6L767 584.4L763.6 581L762.5 577L765 566L767.4 562L770.8 559L780 555.8L806 554.7L816 556L820 557.5L823.7 561L824.7 564L824.4 571L823 573.3L815.4 573L814.6 566L808 563.7L795 563.4L781 564.3L776.2 566L773.8 569L772.6 575L775 577.4L810 578.8L817.3 581L820.7 585L821 594.1L818.6 601L815.7 605L808 609.4ZM496 610.4L489 610.5L487 609.6L483.3 600L481 598.8L443 598.8L433 610.1L424 610.4L423 609L465 556.5L467 555.3L476 555.3L478 558.2L497.1 609ZM1174 610.2L1165 610.1L1161 600.1L1159 598.8L1121 598.8L1119 599.9L1111 609.8L1102 610.5L1100.5 609L1143 556.1L1153 555.3L1154.6 556L1157 562L1174.6 609ZM1328 610.1L1319 610.2L1314.5 600L1312 598.8L1275 598.8L1273 599.6L1264 610.2L1256 610.5L1254.3 609L1296.7 556L1306 555.3L1308.3 556L1310 560ZM365.2 602L372 601.5L376 600L380.8 595L385.3 580L386.2 572L385 566.8L382 564.6L377 563.8L341 564.1L333 601.6ZM1472 610.5L1418.5 610L1419 604L1428.5 559L1430 555.5L1483 555.3L1483.9 556L1483.1 562L1482 563.5L1439 563.6L1436.9 565L1435.5 571L1434.5 576L1436 577.9L1477 578.1L1477.7 579L1476.7 584L1475 586L1433 586.2L1429.3 601L1431 602L1473 602L1474.4 604L1473.4 609ZM654 610.5L642.7 610L606 566.3L605 567.4L596 609.5L594 610.5L587 610.1L598.1 556L609 555.3L611 556.2L647 599.8L648.4 597L657.4 556L659 555.3L666 555.8L666.4 557L655.4 609ZM963 611L936 610.2L930 608.2L927 605.2L925.3 600L925.9 591L929.9 572L932.7 565L938 558.8L947 555.5L978 554.7L990 556.8L993.1 559L995 564L994.5 573L993 574.8L986 574.8L985.1 573L985.5 566L980 563.8L951 563.8L944 565.6L941 569L935.2 594L935.5 599L938 601.3L950 602.3L975 601.3L979.1 599L983 589.9L990 589.8L990.9 591L988 601.8L983.9 607L979 609.6ZM859 610.4L852 610.4L850.7 609L860.2 565L858 563.6L836 563.7L834.4 562L835.9 556L838 555.3L897 555.3L897.8 557L896.7 562L895 563.6L872 563.7L870 564.6L860.3 609ZM1236.2 581L1241 579.4L1243.6 576L1245.2 568L1243 564.6L1236 563.7L1204 563.7L1202 565L1198.9 580L1200 581.4ZM413 610.4L406 610.4L404.8 609L416 556.6L418 555.3L424 555.3L425.3 556L425.1 559L414.4 609ZM905 610.2L898 610.5L896.4 609L907.8 556L916 555.4L917.1 557L906 609ZM479.3 590L471 567.1L469 565.5L449.8 590L477 590.7ZM1156.8 590L1149 568.3L1147 565.3L1127.4 590L1155 590.7ZM1310.5 590L1301 565.4L1281.1 590L1309 590.7Z" fill="#FFFFFF"/>
  </g>
</svg>
