<svg xmlns="http://www.w3.org/2000/svg" viewBox="0 0 296 278" width="296" height="278" role="img" aria-labelledby="title">
  <title id="title">Hockey player silhouette adult 01</title>
  <path d="M 35 49 L 33 53 L 33 58 L 31 64 L 31 68 L 33 73 L 41 83 L 44 91 L 47 93 L 50 93 L 55 100 L 55 106 L 54 107 L 55 114 L 60 118 L 63 118 L 68 123 L 59 139 L 45 160 L 45 164 L 48 168 L 41 174 L 39 182 L 37 184 L 37 189 L 31 204 L 31 208 L 29 213 L 29 220 L 27 225 L 23 228 L 23 231 L 21 233 L 19 233 L 8 240 L 8 256 L 10 255 L 18 255 L 22 253 L 27 253 L 41 245 L 52 226 L 56 222 L 57 216 L 61 210 L 65 195 L 71 185 L 78 177 L 83 177 L 90 165 L 107 148 L 109 148 L 110 149 L 109 156 L 105 167 L 106 179 L 100 198 L 100 206 L 97 219 L 97 225 L 98 226 L 96 228 L 96 234 L 90 246 L 90 248 L 93 252 L 93 260 L 94 261 L 100 261 L 104 259 L 106 254 L 112 246 L 116 235 L 116 231 L 118 228 L 118 224 L 120 219 L 124 214 L 124 211 L 126 209 L 130 198 L 132 196 L 132 192 L 133 191 L 132 188 L 134 184 L 136 183 L 141 185 L 145 183 L 149 183 L 247 266 L 253 269 L 267 269 L 268 268 L 279 267 L 285 264 L 287 260 L 285 254 L 282 250 L 262 255 L 245 255 L 240 252 L 208 225 L 207 223 L 201 219 L 194 212 L 154 179 L 154 175 L 160 165 L 160 156 L 161 155 L 160 151 L 167 144 L 172 142 L 178 133 L 178 114 L 177 113 L 178 78 L 176 70 L 170 60 L 165 55 L 155 48 L 158 44 L 158 29 L 155 25 L 154 20 L 150 15 L 140 9 L 136 8 L 126 9 L 119 13 L 116 17 L 113 25 L 113 30 L 111 33 L 106 34 L 105 33 L 94 32 L 93 33 L 86 33 L 77 37 L 62 37 L 58 39 L 55 39 L 47 45 L 41 46 Z M 63 77 L 64 73 L 65 74 L 79 74 L 80 73 L 84 74 L 74 84 L 71 81 L 70 82 L 65 80 Z" fill="#000000" fill-rule="evenodd"/>
</svg>
