<svg xmlns="http://www.w3.org/2000/svg" viewBox="0 0 189 301" width="189" height="301" role="img" aria-labelledby="title">
  <title id="title">Hockey player silhouette adult 08</title>
  <path d="M 110 8 L 98 9 L 90 11 L 84 24 L 85 37 L 82 40 L 71 45 L 64 52 L 56 66 L 54 73 L 48 78 L 50 82 L 49 90 L 46 95 L 46 100 L 42 105 L 42 110 L 43 111 L 44 134 L 46 139 L 46 147 L 47 148 L 47 156 L 48 157 L 49 169 L 46 174 L 46 179 L 42 182 L 42 184 L 38 190 L 38 193 L 36 196 L 36 200 L 34 204 L 34 210 L 32 214 L 32 218 L 29 223 L 29 231 L 26 238 L 26 246 L 24 250 L 24 255 L 23 256 L 24 260 L 26 262 L 24 266 L 24 273 L 20 277 L 16 279 L 13 279 L 8 288 L 8 292 L 15 290 L 27 278 L 42 280 L 46 279 L 48 277 L 48 273 L 53 267 L 53 262 L 49 253 L 50 248 L 80 208 L 87 210 L 95 209 L 97 203 L 97 199 L 100 194 L 98 188 L 98 182 L 103 173 L 105 172 L 106 169 L 114 158 L 116 160 L 117 169 L 124 172 L 131 179 L 131 194 L 133 198 L 133 201 L 137 208 L 145 228 L 145 238 L 147 242 L 147 251 L 152 257 L 152 265 L 156 270 L 166 271 L 167 272 L 173 272 L 177 269 L 177 260 L 180 258 L 180 254 L 171 245 L 166 234 L 165 207 L 164 206 L 165 199 L 164 198 L 164 192 L 162 187 L 162 183 L 160 178 L 161 166 L 163 164 L 163 160 L 161 156 L 161 152 L 159 146 L 157 143 L 157 140 L 155 137 L 153 126 L 151 123 L 155 116 L 155 113 L 161 105 L 161 101 L 163 97 L 163 91 L 161 89 L 161 87 L 171 75 L 175 67 L 175 54 L 170 44 L 163 39 L 156 39 L 150 35 L 148 35 L 146 33 L 136 29 L 130 29 L 124 31 L 123 30 L 123 24 L 121 22 L 121 20 L 117 16 L 115 12 Z M 34 270 L 35 269 L 36 270 L 35 271 Z M 71 197 L 75 203 L 64 220 L 51 237 L 50 234 L 52 232 L 54 226 L 60 216 L 64 211 L 69 201 L 69 199 Z M 93 131 L 96 132 L 101 137 L 102 140 L 112 153 L 98 173 L 96 165 L 95 149 L 92 137 L 92 132 Z M 135 84 L 137 81 L 139 81 L 141 83 L 140 85 L 136 85 Z" fill="#000000" fill-rule="evenodd"/>
</svg>
