<?xml version="1.0" encoding="UTF-8"?>
<svg xmlns="http://www.w3.org/2000/svg" width="1170" height="284" viewBox="0 0 1170 284" role="img" aria-labelledby="title desc">
  <title id="title">COM-SYS Ice Arena Říčany logo</title>
  <desc id="desc">Vectorized logo from the supplied raster image with transparent background.</desc>
  <path id="comsys-wordmark" fill="#656565" fill-rule="evenodd" d="M308,170 L280,170.1 L272,169.5 L261,168 L241,162.2 L227.8,156 L218.6,150 L213.6,146 L205.6,138 L200,130.1 L198,129.3 L197,130.2 L194,136.1 L188,143.7 L180.5,150 L174.8,154 L162,160.3 L144,166.2 L134,168.2 L118,170.1 L89,170.1 L73,168.1 L58,164 L44.5,158 L38.2,154 L31,148.5 L22.5,140 L17,132.6 L13,126 L9,116.3 L7,109.6 L5.1,99 L5,72 L6.6,62 L9,53.7 L15,41.8 L21,33.6 L27.6,27 L35.2,21 L46.3,15 L56,10.9 L71.4,7 L89,4.7 L117,4.7 L127,5.4 L150,9 L163.9,13 L176.9,19 L185.9,25 L192,31.2 L196,37 L197.4,40 L199,41.5 L200,41.1 L203,36.9 L211,28.7 L221.4,21 L233,15 L242,11.5 L250.6,9 L261,6.9 L280,4.7 L308,4.7 L327,6.8 L337.2,9 L350,12.8 L355.7,15 L366.9,21 L375.2,27 L384,35.8 L388,41.1 L393,49.7 L394,49.7 L394.4,47 L394.4,12 L395,10.5 L396,9.9 L471,9.6 L473,10.4 L474.3,12 L500.8,103 L503,108.4 L504,108.2 L504.4,107 L527.2,16 L529,10.8 L533,9.6 L598,9.6 L607,9.7 L608.8,11 L609.2,14 L609.1,161 L608,164.3 L562,164.7 L560,164.4 L558.6,163 L558.5,53 L558,45.5 L557,45.6 L555,51.5 L542,99.9 L524,162.9 L523,164 L521,164.7 L484,164.6 L481,164.1 L479,160.7 L476,148.4 L448.9,52 L448,47.3 L447,46.3 L446.1,48 L445.9,50 L446,161 L444.8,164 L443,164.6 L398,164.7 L395.1,164 L394.3,161 L394.3,118 L394,116.4 L393,116.3 L388,125.7 L380.8,136 L376,141.4 L370,146.7 L360,154.1 L353,158.2 L339,164 L324,168 Z M1103,170 L1042,170 L1029,168.2 L1020,166 L1009.3,162 L1002.4,158 L995,151.5 L991,147.3 L988.8,144 L985,136 L982.9,128 L982.5,122 L983,120.3 L985,118.4 L988,118 L1041,118.2 L1042.7,119 L1044,120.7 L1046.5,128 L1050.4,132 L1055,134.2 L1061,136 L1068,136.8 L1083,136.7 L1088,136.2 L1095.8,134 L1099.3,132 L1100.8,130 L1102,127 L1102,122 L1099.4,117 L1096.7,115 L1092,112.7 L1077.9,109 L1049,104 L1031.4,100 L1018,96.1 L1009,92.1 L1003,88.2 L998.1,84 L991,75.1 L989,71.7 L987,66 L985.8,58 L986.1,54 L985,53.4 L938.8,113 L938.3,116 L938.3,163 L937.6,166 L935.3,168 L933,168.4 L881,168.3 L878.1,166 L877.1,163 L877.2,116 L876.6,113 L830,50.5 L828,49 L827,49.5 L826.4,56 L823,57.9 L773,57.9 L771,57.3 L769.3,56 L766,49.9 L762,47 L749.5,43 L741,42.3 L728.7,43 L722.2,45 L719.5,47 L718.6,49 L717.9,55 L719,59 L721,61.4 L726,64 L733,66.2 L771.9,73 L790,76.9 L802.8,81 L814,86.8 L819.7,91 L826,97.5 L830,103.6 L832,108.2 L834.2,119 L834,126 L832.1,134 L830,138.2 L826,144 L820.5,150 L815.7,154 L806,160 L796.5,164 L783,168 L770,170 L712,170.1 L706,169.8 L688,166.1 L677,162 L670,158 L665.1,154 L659,147.8 L654.6,141 L653,137.4 L651.6,132 L650.5,127 L650.5,122 L651.6,119 L654,118 L708,118.1 L710.3,119 L712,121.6 L713,125.7 L714.8,129 L718,132 L722,134 L728.6,136 L736,136.8 L755,136.3 L763.3,134 L766.8,132 L768.5,130 L769.4,127 L769.2,121 L768,118.3 L766,116.2 L760,112.9 L745.5,109 L717,104 L699.1,100 L685.4,96 L680.5,94 L673.2,90 L670.4,88 L661,78.6 L657,72.6 L654.9,67 L653.3,58 L654.9,47 L657,41.3 L661,34.2 L667,26.8 L673.6,21 L682.7,15 L690.9,11 L702,7 L711,4.8 L774,4.6 L784.9,7 L791,8.9 L799,12.5 L800.2,12 L801,9 L804,8.1 L867,8.2 L868,8.5 L870.4,11 L908,69 L909,71.3 L911,72.4 L912,71.9 L951,11.5 L954,8.6 L956,8.1 L1013,8.1 L1016,9 L1016.9,11 L1016.5,13 L1017,13.9 L1023.1,11 L1034.4,7 L1042,5.1 L1046,4.6 L1105,4.6 L1109,4.9 L1117.1,7 L1128,10.8 L1136,15 L1142,18.9 L1150,26.3 L1154.1,32 L1158.1,40 L1159.3,46 L1159.4,53 L1159.2,55 L1158,56.8 L1155,57.9 L1105,57.8 L1101.8,56 L1098,49.5 L1094,46.8 L1081.9,43 L1073,42.3 L1061,43 L1055,44.8 L1051.3,48 L1050.4,52 L1050.4,56 L1051.3,59 L1054.1,62 L1058.4,64 L1065,66 L1074,67.8 L1114,74.9 L1122,76.7 L1135.3,81 L1146,86.5 L1152,90.8 L1157.8,97 L1162,103 L1164,108 L1164,133.6 L1162,138.8 L1156.9,146 L1148,154 L1138,160.2 L1122,166.3 L1115,168.1 Z M103.4,139 L112,138.3 L119,136.4 L124.9,134 L128,132 L132.7,128 L136,123.6 L138,119.6 L139.3,114 L141,112.1 L188,111.8 L190,111.2 L190.3,109 L188.9,104 L187.1,91 L187.2,77 L188.7,67 L190.7,60 L190,58 L142,57.7 L139.6,56 L138.1,51 L136,47.6 L133.9,45 L131.3,43 L123.2,39 L112,36.6 L95,36.7 L87,38.9 L80.1,43 L72.8,51 L69,59.6 L67,67 L65.6,77 L65.5,90 L65.5,95 L67,105.7 L69,113.4 L71.1,119 L75.2,126 L81,132.3 L87.5,136 L93.2,138 Z M295.1,139 L305,137.9 L315.7,134 L321.8,130 L328,123.3 L332.2,116 L336.2,105 L338.1,93 L338.1,78 L336,66.6 L332.1,56 L328,49.8 L323.2,45 L316,40.5 L306,37.3 L301,36.5 L286,36.5 L275,38.8 L269.3,41 L262.8,45 L257,51.3 L253,58.4 L251,63.5 L249,73.3 L248,86 L248.6,95 L250.8,107 L253,113.8 L258.7,124 L262.2,128 L267.3,132 L276,136.2 L284,138.3 Z"/>
  <path id="ice-arena-ricany" fill="#444444" fill-rule="evenodd" d="M868,204.3 L864,204.6 L862,204.5 L860.7,204 L854.7,198 L852,194.8 L848.9,192 L848.7,191 L849,190.4 L850,189.7 L853,189.6 L856,190.4 L858,191.9 L863,197.8 L864,198.4 L865,198.5 L866.3,198 L873,190.7 L876,189.8 L879,189.7 L880,189.9 L881,190.7 L881,192 L870.9,202 Z M911,204 L909,204.6 L906,204.6 L904.7,204 L904.6,203 L909,197.4 L915,190.7 L918,189.8 L921,189.7 L923,190 L924,190.6 L924.2,191 L924,192.1 Z M959,204.3 L954,204.6 L951.7,204 L940.1,192 L940,190.7 L941,189.8 L942,189.6 L945,189.8 L948,190.8 L954.4,198 L955,198.5 L956,198.6 L958,197.1 L964,190.8 L968,189.7 L971,189.7 L972,190.3 L972.4,191 L972.2,192 L962,202 L960,203.9 Z M362,278.2 L357,278.2 L355.6,277 L355,275 L355.1,212 L356,210.6 L358,209.7 L359,209.6 L361,209.8 L363,210.5 L363.7,211 L364.1,212 L364.1,275 L363.5,277 Z M414,278 L405,278.5 L399,278 L393,276 L387.1,272 L383,267.2 L380.8,263 L378.9,258 L377.5,249 L377.4,242 L378.8,232 L381,226 L383,222.3 L387,217.4 L389.6,215 L392.5,213 L397,210.8 L405,209.3 L410,209.3 L417,210.7 L422.6,213 L426,216 L426.7,219 L426.4,222 L426,222.8 L425,223.3 L424,223.1 L417,218.9 L411,217.1 L408,216.9 L404.9,217 L399,218.7 L395.4,221 L393,223.4 L391,226.4 L388.8,231 L386.9,240 L386.9,249 L389,258 L391,262 L395,266.5 L397,268 L401,269.7 L406,270.6 L413,270.2 L419,268 L424,264.9 L425,264.5 L426.4,265 L426.8,266 L427,269 L426.6,271 L426,272.2 L424,274 L420.4,276 Z M566,278 L563,278.4 L559,278 L557,275.4 L552.1,261 L551,260.4 L549,260.2 L526,260.2 L524,260.6 L523.3,261 L522.7,262 L520,270.8 L518.2,276 L517.5,277 L516,278.1 L512,278.4 L510,278.1 L509,277 L508.9,275 L510,272.8 L511,269.2 L512.1,267 L512.9,264 L514,261.7 L517,252.5 L518.2,250 L519,247 L520,245 L523,236 L526,228.5 L527,225 L528,222.9 L531,213.8 L533,210.5 L536,209.7 L540,209.8 L543,210.7 L544,211.6 L557,248 L558,250.1 L559,253.7 L560.1,256 L563,264.8 L566.3,273 L566.8,276 L566.7,277 Z M809,278 L807,278.4 L803,278.2 L802,277.9 L801,277.1 L799,272.6 L795.6,262 L794.9,261 L793,260.2 L770,260.2 L767,260.5 L766.5,261 L765,264.2 L762,274 L760,277.6 L758,278.3 L754,278.3 L752.9,278 L752.2,277 L752.2,275 L752.7,273 L755,266.5 L756,264.6 L759,255.3 L760,253.5 L760.9,250 L762,248 L763,244.3 L766,236.9 L767,233.2 L768.1,231 L771,222.2 L772.1,220 L773,216.6 L775,211.4 L776,210.6 L780,209.6 L783,209.7 L785,210.1 L786.5,211 L788,214 L789,217.6 L790,219.5 L793,228.6 L794.2,231 L794.9,234 L798.1,242 L799,245.2 L804.2,259 L805,261.9 L806.1,264 L807,267.5 L810,275 L809.9,277 Z M912,278 L909,278.4 L906,278.1 L904.8,277 L904.4,275 L904.4,212 L905,210.7 L908,209.7 L912,210.2 L913,211 L913.5,212 L913.6,275 L912.9,277 Z M963,278.2 L956,278.5 L949,278.1 L943,276.2 L939.1,274 L934.7,270 L933,267.8 L930.7,264 L928.8,259 L927,249.8 L926.9,241 L928.7,231 L931,225 L933,221.6 L937,216.9 L939.1,215 L942,213 L947,210.7 L955,209.2 L959,209.2 L966,210.6 L972,212.9 L974.7,215 L976.1,217 L976.3,219 L976.1,222 L975,223.1 L974,223.2 L973,222.9 L970,220.8 L966,218.7 L961,217.3 L958,216.9 L954.5,217 L949,218.6 L945,221 L942.9,223 L941,225.6 L938.8,230 L937,235.9 L936.5,242 L936.8,251 L939,259 L941,262.7 L944.1,266 L946.7,268 L951.2,270 L956,270.6 L963,270.1 L968.6,268 L973.2,265 L975,264.5 L976,264.9 L976.5,266 L976.6,269 L976.3,271 L975.7,272 L973.5,274 L969.9,276 Z M1038,278.2 L1033,278.3 L1031,277.5 L1029,273.6 L1028.1,270 L1027,267.8 L1025.5,263 L1024.5,261 L1023,260.2 L998,260.2 L997,260.4 L996,261.3 L995,263.1 L992,272.8 L990,277.2 L989,278 L985,278.4 L983,278.1 L981.8,277 L981.7,275 L983,271.1 L984,269.1 L985,265.5 L988,258 L988.8,255 L992,246.8 L993,243.2 L996,235.9 L1001,221.1 L1002,219.3 L1003,215.6 L1004.9,211 L1006,210.3 L1008,209.8 L1012,209.7 L1015,210.3 L1016.2,211 L1018,215 L1019,218.6 L1020,220.5 L1021,224 L1022,226 L1024.9,235 L1026,237.1 L1027,240.6 L1028,242.7 L1031,251.8 L1032.1,254 L1033,257.4 L1034,259.2 L1035,262.8 L1036,265 L1036.8,268 L1038,270.5 L1039.5,275 L1039.5,277 Z M1140,278.1 L1135,278.2 L1134,277.7 L1133,276.2 L1132.6,251 L1113.2,212 L1113.3,211 L1115,209.9 L1119,209.7 L1121,210.1 L1122.5,211 L1124,213.4 L1126.9,220 L1130,225.7 L1136.9,241 L1138,241.3 L1140,238.1 L1141,235.1 L1144,229.4 L1145,226.6 L1152.8,211 L1155,209.9 L1158,209.6 L1160,210 L1161.4,211 L1161.6,212 L1160.1,216 L1159,217.6 L1158.1,220 L1151,233.5 L1142.5,251 L1142.2,254 L1142.2,275 L1141.7,277 Z M474,278.1 L442,278.1 L441,277.6 L439.5,276 L439.1,275 L439,273 L438.9,215 L439.6,212 L441,210.5 L444,210.1 L473,210.1 L475,210.4 L476,211.1 L476.5,214 L476.1,216 L474,217.2 L450,217.3 L448.9,218 L448.3,220 L448.4,237 L449,238.4 L450,238.8 L470,238.8 L471,239 L472,239.9 L472.6,243 L472,245.3 L471.2,246 L470,246.3 L450,246.3 L448.7,247 L448.3,249 L448.3,267 L448.8,270 L450,270.6 L475,270.7 L476,271.2 L476.4,272 L476.7,275 L476,277.2 L475,277.9 Z M622,278.2 L617,278.3 L616,278.1 L615,277.4 L613,273.9 L612.2,271 L611,268.7 L608,260.4 L604.3,253 L602.4,251 L599.9,249 L594,247.8 L590,247.7 L589,248.1 L588,249 L587.7,250 L587.6,275 L587.1,277 L586,278 L583,278.4 L580,278 L579,277.2 L578.5,275 L578.5,215 L578.8,212 L579.4,211 L581,210.3 L583,210.1 L598,210.1 L605,210.6 L606.8,211 L611.6,213 L614.4,215 L616.3,217 L618.1,220 L619.7,226 L619.7,230 L618.4,235 L618,236.1 L614.9,240 L612.6,242 L610.7,243 L608.3,245 L608.4,246 L610,247 L612,249.2 L614,252.2 L616,256.2 L623.5,275 L623.3,277 Z M672,278.1 L640,278.1 L639,277.6 L637.4,276 L636.9,275 L636.9,273 L636.8,215 L637.4,212 L639,210.5 L642,210.1 L671,210.1 L673,210.5 L674,211.3 L674.4,214 L674,216 L672,217.1 L648,217.3 L646.9,218 L646.3,220 L646.3,237 L647,238.4 L648,238.8 L668,238.9 L669,239.2 L669.9,240 L670.5,242 L670.1,245 L669,246.1 L667,246.4 L648,246.3 L646.6,247 L646.3,248 L646.3,263 L646.3,269 L646.7,270 L648,270.6 L673,270.7 L674,271.4 L674.3,272 L674.6,275 L674,277.1 L673,277.9 Z M737,278.1 L732,277.9 L729,276.4 L727,274 L710.9,244 L710,241.8 L705,233 L702,226.3 L700,223.2 L699,223.3 L698.6,226 L698.6,276 L698,277.4 L697,278.1 L696,278.3 L692,278.3 L691,278 L690.2,277 L689.6,275 L689.6,214 L691,210.7 L694,210.1 L701,210.4 L702.4,211 L704.3,213 L706,215.6 L707,218 L710,223.1 L711,225.6 L720,242 L721,244.5 L728,257.3 L729,260 L731,262.3 L732,261.5 L732.1,260 L732.1,212 L732.5,211 L734,210.3 L739,210.3 L740.5,211 L740.8,212 L740.9,217 L740.9,273 L740.8,275 L740,276.6 L738,277.9 Z M890,278 L886,278.4 L883,277.9 L881,275.4 L876,261.9 L872,253.5 L869.9,251 L867,248.9 L864,248.1 L861,247.8 L858,247.8 L856,248.2 L855.1,249 L854.9,250 L854.8,275 L854.5,277 L854,277.7 L853,278.2 L850,278.3 L847.3,278 L846.4,277 L846,275 L845.9,216 L846.3,212 L847,210.8 L850,210.1 L855,210.1 L867,210.2 L873,210.7 L878.9,213 L881.7,215 L884,217.4 L886,221.1 L886.7,224 L886.9,229 L886.2,234 L884.2,238 L882.3,240 L880,242.1 L878.1,243 L875.6,245 L875.8,246 L877.3,247 L880,250 L882,253.2 L884,257.6 L885,260.8 L890.2,273 L890.8,276 L890.7,277 Z M1099,278.1 L1093.9,278 L1091,276.6 L1089,274.6 L1087,271.4 L1078,254 L1073,245.1 L1072,242.6 L1067,233.7 L1062,223.5 L1061,223.2 L1060.3,226 L1060.3,276 L1059.9,277 L1059,277.9 L1057,278.4 L1053,278.1 L1051.6,277 L1051.1,276 L1051,274 L1050.9,215 L1051.2,213 L1052.4,211 L1053,210.6 L1056,210.1 L1063,210.5 L1064,211 L1066,213.1 L1078,235.3 L1087,253 L1088.4,255 L1091,261 L1092,261.8 L1093,261.7 L1093.5,260 L1093.6,212 L1094.1,211 L1096,210.2 L1100,210.2 L1102.1,211 L1102.6,214 L1102.5,274 L1102,276.1 L1100,277.7 Z M600.8,240 L606,237.7 L608,235.8 L609.5,233 L610.3,230 L610.2,227 L609.7,225 L608.3,222 L607.6,221 L605.1,219 L600,217.6 L590,217.2 L589,217.6 L588,219 L587.7,220 L587.9,239 L588.6,240 L590,240.4 L598,240.3 Z M868,240 L872.9,238 L875.1,236 L876.4,234 L877.3,231 L877.6,228 L876,222.4 L874.9,221 L872,218.8 L867,217.6 L865,217.3 L858,217.3 L856,217.8 L855.1,219 L854.9,220 L855,239.1 L856,240.1 L858,240.4 L865,240.4 Z M548.5,252 L548.7,251 L548.1,249 L547,246.7 L546,243 L541,229.5 L540,226 L538,221.3 L537,221.3 L534.9,226 L534,229.6 L531,237.4 L530.1,241 L529,243.1 L528,246.9 L526.7,250 L526.5,252 L527,252.5 L528,252.9 L547,252.8 L548,252.5 Z M791.6,252 L791.8,251 L788,240 L787,238 L786,234.3 L785,232.3 L784,228.6 L783,226.5 L782,222.6 L781,221.6 L780,221.8 L779,222.9 L776,232.7 L774.9,235 L774,238.4 L769.4,251 L769.6,252 L771,252.7 L773,252.9 L789,252.8 L791,252.5 Z M1021.1,252 L1021.3,251 L1020.1,247 L1019,244.8 L1018,241 L1017,239 L1016,235.3 L1014.9,233 L1012,223.9 L1011,222.2 L1010,221.4 L1008.9,222 L1006,231.5 L1005,233.6 L1000,248.8 L998.9,251 L999.1,252 L1000,252.7 L1001,252.8 L1012,252.8 L1019,252.8 L1020,252.7 Z"/>
  <path id="accent-dot" fill="#05ABB1" fill-rule="evenodd" d="M643,116.2 L639,116.6 L633,116.4 L627,114.4 L623.4,112 L619,108 L617,105 L614.6,100 L613.8,93 L614.3,87 L614.8,85 L616,83 L617,80.2 L619,77 L623.5,73 L625.7,72 L627,70.7 L629.8,70 L633,68.6 L638,68.4 L643.9,69 L648,70.4 L652,72.7 L654.6,75 L658,79.1 L660.3,84 L661,87.1 L662,89.5 L662,94.6 L661,97.8 L660.5,101 L658,106.2 L652,112.3 L648,114.5 Z"/>
</svg>
