<?xml version="1.0" encoding="UTF-8"?>
<svg xmlns="http://www.w3.org/2000/svg" width="336" height="52" viewBox="0 0 336 52" role="img" aria-labelledby="title desc">
  <title id="title">COM-SYS wordmark</title>
  <desc id="desc">Vectorized COM-SYS wordmark from the supplied PNG with transparent background.</desc>
  <path id="comsys-wordmark" fill="#949599" fill-rule="evenodd" d="M317,48.1 L314,48.6 L310,48.9 L300,48.6 L293,47.2 L290,46.3 L287.6,45 L285,42.6 L283.8,41 L282.8,38 L282.6,36 L283,35.4 L297,35.3 L298,35.7 L298.5,37 L301,39.6 L304,40.7 L308,40.9 L312,40.7 L315,39.6 L316.5,38 L316.8,36 L316.7,35 L316.1,34 L314,32.3 L312,31.4 L295.1,28 L294,27.5 L292,27.1 L288,25.2 L284.9,22 L284,20 L283.4,17 L283.7,15 L284.1,14 L284.3,13 L284,12.7 L283,13 L267.8,33 L267.8,47 L267,47.7 L253,47.7 L252.2,47 L252.2,33 L237.8,14 L237.4,13 L236,11.7 L235.2,12 L235.8,15 L235,16.2 L222,16.2 L221,15.8 L220.6,15 L219,13.4 L217,12.3 L213,11.6 L209,11.7 L207,12.2 L205.6,13 L204.4,15 L204.4,17 L205.1,18 L207,19.7 L210,20.6 L223,22.9 L225,23.6 L227,23.8 L232,25.8 L234.9,28 L237,31.2 L237.7,34 L237.7,36 L237.2,39 L236.1,41 L234,43.2 L231,45.2 L229,46.2 L226,47.2 L219,48.6 L214,48.9 L205,48.6 L197,47.1 L194,46 L192.2,45 L189.8,43 L188,40 L187.1,36 L188,35.3 L202,35.4 L202.8,36 L203.9,38 L206,39.7 L208,40.6 L214,40.9 L217,40.6 L220,39.3 L221.4,37 L221.3,35 L220.7,34 L219,32.4 L217,31.5 L200,28.1 L194,26 L192.4,25 L190,22.6 L189,21 L188.7,20 L188.1,17 L188.8,13 L189.8,11 L191,9.5 L194,6.7 L197,5.1 L200,3.8 L206,2.4 L211,1.9 L215,1.9 L219,2.3 L226,4 L228,4.8 L231,6.5 L231.5,6 L230.6,4 L231,3.7 L233,3.8 L248,3.8 L249.1,5 L258.1,19 L260,22.3 L261,22.8 L262.5,21 L272.7,5 L274,3.7 L290,3.9 L288.5,6 L289,6.5 L290,6.5 L291,5.7 L295.1,4 L302,2.3 L305,2 L310,1.9 L315,2.4 L321,3.9 L323.8,5 L327,6.8 L329.2,9 L330.3,11 L331,13 L331.3,15 L331,16 L330,16.2 L317,16.2 L315,14 L313,12.5 L310,11.8 L307,11.6 L304,11.7 L302,12.3 L300.3,14 L299.7,16 L300.3,18 L302,19.5 L305,20.6 L318.8,23 L325,24.7 L329,26.8 L331.2,29 L332,30.4 L332.9,33 L333.2,36 L332,40 L331,41.5 L328,44.3 L326.7,45 L321.9,47 Z M84,49 L77,48.6 L71,47.2 L68,46.2 L64,44.1 L62.5,43 L59,39.8 L57.2,37 L56,36.7 L55.6,37 L55.3,38 L54.2,40 L51,43.2 L47.9,45 L45,46.3 L40,47.7 L35,48.7 L27,49 L23,48.6 L17,47.2 L14,46.1 L10.5,44 L6.9,41 L4.7,38 L2.8,34 L1.9,31 L1.7,29 L1.8,20 L2.7,16 L4.8,12 L7,9.5 L10,6.9 L14,4.8 L17,3.8 L25,2.4 L34,2.4 L43,3.8 L46,4.7 L49,5.9 L52,7.7 L54.3,10 L55,11 L55.7,13 L56,13.2 L57.3,13 L57.7,12 L59,10.6 L62,7.8 L65.1,6 L68,4.8 L71,3.8 L79,2.4 L89,2.4 L97,3.9 L100,4.8 L104,6.7 L107,8.8 L109.2,11 L111.2,14 L111.4,15 L112,15.4 L113,15.5 L113.5,15 L113.3,5 L114,3.8 L134,3.8 L135,4.3 L135.3,5 L137.4,13 L141.2,25 L141.5,27 L142,28 L142.4,30 L143.1,32 L144,33.1 L144.8,32 L148.9,15 L152,3.9 L173,3.8 L173.4,4 L173.8,5 L173.8,46 L173.4,47 L173,47.2 L161,47.2 L160.3,46 L160.4,14 L160.4,13 L160,12.6 L159,12.7 L158.5,13 L158.2,15 L156.4,21 L156.1,23 L149.2,47 L138,47.1 L136.9,44 L134.6,35 L133.8,33 L133.5,31 L130.8,22 L129.6,17 L128.9,15 L128.6,13 L128,12.5 L127,12.6 L126.6,13 L126.9,46 L126.4,47 L126,47.2 L114,47.3 L113.7,47 L113.3,46 L113.5,33 L113,32.5 L111.5,33 L111,35 L110,36.9 L107,40.6 L104,43.3 L101,45.1 L96,47.2 L90,48.6 Z M29.7,41 L33,40.6 L37,38.5 L39.2,36 L40,33.7 L41,33 L54.5,33 L54.8,32 L54,28 L53.8,24 L54.1,21 L55,17 L54,16.5 L41,16.4 L40,16 L39.1,14 L38,12.7 L36,11.4 L32,10.4 L27,10.3 L25,10.8 L22,12.4 L20.5,14 L19.3,16 L18.4,18 L17.8,21 L17.7,28 L18.5,33 L20.6,37 L23,39.4 L25,40.5 Z M84.5,41 L88,40.5 L90,39.7 L92,38.5 L94.3,36 L95.6,34 L96.6,31 L97.2,26 L97.1,23 L96.6,19 L95.2,16 L94.6,15 L92,12.5 L90,11.4 L86,10.3 L81,10.3 L77,11.4 L75,12.6 L72.7,15 L71.5,17 L70.3,21 L70.1,25 L70.3,29 L71.4,33 L72.3,35 L75,38.2 L77,39.6 L80,40.7 Z"/>
  <path id="accent-dot" fill="#05ABB1" fill-rule="evenodd" d="M183,34.2 L182,34.3 L179,33.2 L178,32.5 L176.5,31 L176.5,30 L175.5,29 L175.6,25 L176.5,24 L176.6,23 L178,21.5 L180,20.5 L181,20.5 L182,20 L185,20.5 L187,21.5 L188.4,23 L188.5,24 L189.5,25 L189.5,29 L188.5,30 L188.5,31 L186,33.2 Z"/>
</svg>
